<svg xmlns="http://www.w3.org/2000/svg" version="1.1" xmlns:xlink="http://www.w3.org/1999/xlink" width="159" height="159"><svg width="159" height="159" viewBox="0 0 159 159" fill="none" xmlns="http://www.w3.org/2000/svg">
<circle cx="79.5" cy="79.5" r="76" fill="#003142" stroke="white" stroke-width="7"></circle>
<g clip-path="url(#clip0_391_2)">
<path d="M111.333 115.25C106.673 115.25 102.012 113.879 97.7425 111.412C96.45 110.668 94.8834 110.668 93.5517 111.412C85.0525 116.347 74.9084 116.347 66.4092 111.412C65.1167 110.668 63.55 110.668 62.2184 111.412C57.9884 113.879 53.3275 115.25 48.6667 115.25H44.75C42.5959 115.25 40.8334 117.013 40.8334 119.167C40.8334 121.321 42.5959 123.083 44.75 123.083H48.6667C54.0717 123.083 59.3984 121.713 64.3334 119.206C74.2034 124.258 85.7967 124.258 95.6667 119.206C100.602 121.752 105.928 123.083 111.333 123.083H115.25C117.404 123.083 119.167 121.321 119.167 119.167C119.167 117.013 117.404 115.25 115.25 115.25H111.333ZM48.4709 107.417H48.6667C53.6409 107.417 58.145 105.263 61.7092 102.208C63.2367 100.876 65.43 100.876 66.9575 102.208C70.5217 105.263 75.0259 107.417 80 107.417C84.9742 107.417 89.4784 105.263 93.0425 102.208C94.57 100.876 96.7634 100.876 98.2909 102.208C101.855 105.263 106.359 107.417 111.333 107.417H111.529L118.971 81.2534C119.402 79.8042 119.128 77.1017 116.386 76.2401L111.333 74.5951V56.5001C111.333 52.1917 107.808 48.6667 103.5 48.6667H91.75V40.8334C91.75 38.6792 89.9875 36.9167 87.8334 36.9167H72.1667C70.0125 36.9167 68.25 38.6792 68.25 40.8334V48.6667H56.5C52.1917 48.6667 48.6667 52.1917 48.6667 56.5001V74.5951L43.6142 76.2401C41.1467 76.9842 40.4417 79.5301 41.0292 81.2534L48.4709 107.417ZM56.5 56.5001H103.5V72.0492L82.4284 65.1167C80.8225 64.6076 79.1384 64.6076 77.5325 65.1167L56.5 72.0492V56.5001Z" fill="white"></path>
<path d="M111.333 115.25C106.673 115.25 102.012 113.879 97.7425 111.412C96.45 110.667 94.8834 110.667 93.5517 111.412C85.0525 116.347 74.9084 116.347 66.4092 111.412C65.1167 110.667 63.55 110.667 62.2184 111.412C57.9884 113.879 53.3275 115.25 48.6667 115.25H44.75C42.5959 115.25 40.8334 117.012 40.8334 119.167C40.8334 121.321 42.5959 123.083 44.75 123.083H48.6667C54.0717 123.083 59.3984 121.712 64.3334 119.206C74.2034 124.258 85.7967 124.258 95.6667 119.206C100.602 121.752 105.928 123.083 111.333 123.083H115.25C117.404 123.083 119.167 121.321 119.167 119.167C119.167 117.012 117.404 115.25 115.25 115.25H111.333Z" fill="#3CC8F4"></path>
</g>
<defs>
<clipPath id="SvgjsClipPath1001">
<rect width="94" height="94" fill="white" transform="translate(33 33)"></rect>
</clipPath>
</defs>
</svg><style>@media (prefers-color-scheme: light) { :root { filter: none; } }
@media (prefers-color-scheme: dark) { :root { filter: none; } }
</style></svg>